#!OML:ASF X:\für Bonn\!DataBase\2005_08_10_Bjorn_Final\c3d\bjorn.ASF
:FULLY-SPECIFIED
:DEGREES
141
root 3.87455 7.58106 0.733227 469.266 79.7959 -595.942
lowerback 45.5697 -5.58097 6.32686
upperback 23.0116 0.689845 1.97611
thorax 4.99723 2.83662 -1.0641
lowerneck -6.75181 -10.6629 3.72305
upperneck 6.46876 -14.6486 1.05532
head 3.04535 -7.12182 -0.93809
rclavicle -5.08889e-014 -5.56597e-014
rhumerus 9.35762 -19.4194 -72.7263
rradius 22.7826
rwrist 30.8557
rhand -52.0901 41.8363
rfingers 7.12502
rthumb -24.5939 13.3962
lclavicle -5.08889e-014 -5.56597e-014
lhumerus -0.471442 -34.5844 76.7256
lradius 41.9154
lwrist -22.191
lhand -31.7217 -15.3837
lfingers 7.12502
lthumb -4.98002 14.5377
rfemur 166.839 65.6652 45.8952
rtibia 204.154
rfoot -147.936 97.9331
rtoes -7.50141
lfemur -85.5968 31.8419 -27.8292
ltibia 153.823
lfoot -30.08 -15.1769
ltoes -28.2025
142
root 3.88589 7.58426 0.7234 468.904 79.8873 -596.213
lowerback 45.6669 -5.56139 6.32873
upperback 23.0046 0.727283 2.01682
thorax 4.96845 2.85172 -1.03368
lowerneck -6.94666 -10.587 3.80031
upperneck 6.41253 -14.5515 0.850406
head 3.04095 -7.08158 -1.0194
rclavicle -1.27222e-014 2.70347e-014
rhumerus 9.38169 -19.4824 -72.6616
rradius 22.649
rwrist 30.9835
rhand -52.0635 41.9425
rfingers 7.12502
rthumb -24.5683 13.4989
lclavicle -1.27222e-014 2.70347e-014
lhumerus -0.520759 -34.6542 76.6745
lradius 41.9045
lwrist -22.082
lhand -31.7107 -15.4166
lfingers 7.12502
lthumb -4.96942 14.5051
rfemur 166.988 65.5365 46.1305
rtibia 204.201
rfoot -147.274 98.0126
rtoes -7.53694
lfemur -85.3216 31.82 -27.5141
ltibia 153.851
lfoot -30.138 -15.3448
ltoes -28.3811
143
root 3.8973 7.58992 0.713326 468.486 79.9791 -596.558
lowerback 46.7217 -5.61955 6.40449
upperback 22.1673 0.828816 1.92423
thorax 4.76416 2.87333 -1.016
lowerneck -7.10272 -10.5076 3.90166
upperneck 6.32318 -14.4494 0.643088
head 3.01643 -7.03978 -1.10071
rclavicle -3.49861e-014 -5.88403e-014
rhumerus 9.37903 -19.5594 -72.5871
rradius 22.5098
rwrist 31.1188
rhand -52.0444 42.0721
rfingers 7.12502
rthumb -24.55 13.626
lclavicle -3.49861e-014 -5.88403e-014
lhumerus -0.578827 -34.7717 76.6211
lradius 41.8906
lwrist -21.955
lhand -31.6936 -15.4469
lfingers 7.12502
lthumb -4.95284 14.4752
rfemur 167.033 65.4042 46.2812
rtibia 204.263
rfoot -146.856 98.0534
rtoes -7.33395
lfemur -85.0423 31.8052 -27.2349
ltibia 153.865
lfoot -30.2499 -15.4569
ltoes -28.5861
144
root 3.90788 7.59508 0.703337 468.302 80.0621 -596.686
lowerback 46.7861 -5.61319 6.44043
upperback 22.1327 0.853887 1.94753
thorax 4.71761 2.88319 -1.01653
lowerneck -7.21267 -10.4094 4.01895
upperneck 6.19078 -14.3192 0.412797
head 2.9666 -6.98634 -1.1853
rclavicle 9.54166e-015 -3.02153e-014
rhumerus 9.42025 -19.7161 -72.5845
rradius 22.3135
rwrist 31.3699
rhand -52.0352 42.0645
rfingers 7.12502
rthumb -24.5413 13.6172
lclavicle 9.54166e-015 -3.02153e-014
lhumerus -0.659796 -34.859 76.5486
lradius 41.8905
lwrist -21.7754
lhand -31.715 -15.5272
lfingers 7.12502
lthumb -4.97359 14.3944
rfemur 167.04 65.2595 46.4059
rtibia 204.308
rfoot -145.675 98.1568
rtoes -7.46784
lfemur -84.8537 31.7476 -27.0272
ltibia 153.896
lfoot -30.3337 -15.4515
ltoes -28.9767
145
root 3.91919 7.60177 0.694009 467.939 80.145 -597.018
lowerback 46.8243 -5.55244 6.42276
upperback 22.0892 0.913198 2.00736
thorax 4.66292 2.89762 -0.965588
lowerneck -7.3026 -10.3138 4.10843
upperneck 6.10307 -14.1866 0.149232
head 2.92862 -6.93183 -1.27674
rclavicle 1.27222e-014 -3.49861e-014
rhumerus 9.41628 -19.8042 -72.4973
rradius 22.1472
rwrist 31.4768
rhand -51.937 42.1344
rfingers 7.12502
rthumb -24.4471 13.6743
lclavicle 1.27222e-014 -3.49861e-014
lhumerus -0.773066 -34.9639 76.5192
lradius 41.9279
lwrist -21.5786
lhand -31.6743 -15.5756
lfingers 7.12502
lthumb -4.93424 14.347
rfemur 167.15 65.1782 46.6515
rtibia 204.36
rfoot -144.979 98.165
rtoes -7.33089
lfemur -84.6166 31.7186 -26.8398
ltibia 153.903
lfoot -30.5182 -15.3422
ltoes -29.499
